<?xml version="1.0" encoding="UTF-8" standalone="no"?>
<svg
   xmlns="http://www.w3.org/2000/svg"
   width="1724.952"
   height="1569.524"
   version="1.1"
   viewBox="0 0 1617.143 1471.428"
>
   <g
      fill="#000"
      fillOpacity="1"
      stroke="none"
      strokeDasharray="none"
      strokeLinecap="round"
      strokeLinejoin="round"
      strokeMiterlimit="4"
      strokeOpacity="1"
      strokeWidth="23"
      transform="translate(814.286 341.924)"
   >
      <path
         d="M-154.745-115.777a19.956 19.956 0 00-26.629 9.534l-12.21 25.83a19.956 19.956 0 009.535 26.629L53.596 58.55a19.956 19.956 0 0026.629-9.534l12.21-25.83A19.956 19.956 0 0082.9-3.443l-237.645-112.334zm-23.902 86.669l-151.406 320.303 206.646 97.681L28 68.573l-206.647-97.681zM15.794 205.016a22.654 22.654 0 00-30.227 10.824l-31.879 67.438a22.654 22.654 0 0010.823 30.228l627.97 296.84a22.654 22.654 0 0030.228-10.823l31.879-67.439a22.654 22.654 0 00-10.824-30.227l-627.97-296.84zm-368.344 97.666a19.956 19.956 0 00-26.629 9.535l-12.21 25.832a19.956 19.956 0 009.534 26.628l237.645 112.335a19.956 19.956 0 0026.629-9.535l12.21-25.832a19.956 19.956 0 00-9.534-26.628L-352.55 302.682z"
         opacity="1"
      ></path>
      <path
         d="M-574.523 632.361a28.272 28.272 0 00-28.334 28.334v40.477c0 .884.046 1.756.125 2.619h-28.815c-18.928 0-26.14 17.024-34.168 34.166l-22.857 48.81c-8.027 17.142 15.24 34.167 34.168 34.167h583.095c18.928 0 43.728-17.83 34.166-34.166l-28.572-48.811c-9.562-16.335-15.238-34.166-34.166-34.166h-28.814c.078-.863.123-1.735.123-2.62v-40.476a28.27 28.27 0 00-28.332-28.334z"
         opacity="1"
      ></path>
   </g>
</svg>